<?xml version="1.0" encoding="utf-8"?>
<!-- Generator: Adobe Illustrator 19.2.1, SVG Export Plug-In . SVG Version: 6.00 Build 0)  -->
<svg version="1.0" id="Capa_1" xmlns="http://www.w3.org/2000/svg" xmlns:xlink="http://www.w3.org/1999/xlink" x="0px" y="0px"
	 viewBox="0 0 29.46 29.37" enable-background="new 0 0 29.46 29.37" xml:space="preserve">
<title>SIASAR logo blue</title>
<g>
	<path fill="#FFFFFF" d="M7.57,0.1c8-1.39,6.08,11.71-1.11,8.48C3.22,7.12,2.95,0.9,7.57,0.1"/>
	<path fill="#FFFFFF" d="M16.89,2.05c0-0.12,0.05-0.13,0.14-0.14c5.1,4,13.06,9.46,12.38,18.5c-0.35,4.59-4.1,9.52-10.19,8.9
		c-3.2-0.33-7.11-2.71-7.37-6.68c-0.5-7.68,8.28-11.41,5-20.59"/>
	<path fill="#FFFFFF" d="M3.12,12.34c6.28-1.18,5.35,8.89-0.56,7C-0.44,18.34-0.56,13.07,3.12,12.34"/>
	<path fill="#FFFFFF" d="M6.74,23.05c4.31-1,4.7,5.72,0.7,5.7C4.44,28.75,3.31,23.82,6.74,23.05"/>
	<path fill="#FFFFFF" d="M0.9,26.53c0.54-0.3,1.22-0.11,1.53,0.43c0.1,0.18,0.15,0.37,0.14,0.57C2.84,30.77-1.94,27.53,0.9,26.53"/>
</g>
</svg>
