<svg id="Capa_1" data-name="Capa 1" xmlns="http://www.w3.org/2000/svg" viewBox="0 0 34.08 40"><title>SIASAR logo blue</title><path d="M10.35,0.1c8-1.39,6.08,11.71-1.11,8.48C6,7.12,5.73.9,10.35,0.1" transform="translate(-0.46 0)" style="fill:#00add2;fill-rule:evenodd"/><path d="M19.67,2.05c0-.12.05-0.13,0.14-0.14,5.1,4,13.06,9.46,12.38,18.5C31.84,25,28.09,29.93,22,29.31c-3.2-.33-7.11-2.71-7.37-6.68-0.5-7.68,8.28-11.41,5-20.59" transform="translate(-0.46 0)" style="fill:#00add2;fill-rule:evenodd"/><path d="M5.9,12.34c6.28-1.18,5.35,8.89-.56,7-3-1-3.12-6.27.56-7" transform="translate(-0.46 0)" style="fill:#00add2;fill-rule:evenodd"/><path d="M9.52,23.05c4.31-1,4.7,5.72.7,5.7-3,0-4.13-4.93-.7-5.7" transform="translate(-0.46 0)" style="fill:#00add2;fill-rule:evenodd"/><path d="M3.68,26.53a1.12,1.12,0,0,1,1.67,1c0.27,3.24-4.51,0-1.67-1" transform="translate(-0.46 0)" style="fill:#00add2;fill-rule:evenodd"/><path d="M5.69,37.91A1.94,1.94,0,0,1,5.39,39a2,2,0,0,1-.9.75A3.37,3.37,0,0,1,3.08,40a3.16,3.16,0,0,1-1.61-.37,2.14,2.14,0,0,1-.73-0.71,1.6,1.6,0,0,1-.28-0.86,0.58,0.58,0,0,1,.6-0.59,0.51,0.51,0,0,1,.36.13,1.05,1.05,0,0,1,.25.4,2.7,2.7,0,0,0,.27.53,1.11,1.11,0,0,0,.41.35A1.53,1.53,0,0,0,3,39a1.57,1.57,0,0,0,1-.28,0.83,0.83,0,0,0,.37-0.69,0.73,0.73,0,0,0-.2-0.53,1.29,1.29,0,0,0-.52-0.31C3.45,37.14,3.17,37.06,2.81,37a6.2,6.2,0,0,1-1.19-.39A1.92,1.92,0,0,1,.87,36a1.58,1.58,0,0,1-.28-1,1.64,1.64,0,0,1,.3-1,1.86,1.86,0,0,1,.86-0.65,3.51,3.51,0,0,1,1.32-.23,3.26,3.26,0,0,1,1,.15,2.21,2.21,0,0,1,.73.4,1.66,1.66,0,0,1,.43.52,1.21,1.21,0,0,1,.14.53,0.63,0.63,0,0,1-.17.43,0.54,0.54,0,0,1-.42.19,0.48,0.48,0,0,1-.35-0.11,1.56,1.56,0,0,1-.26-0.37,1.69,1.69,0,0,0-.43-0.58A1.26,1.26,0,0,0,3,34.14a1.4,1.4,0,0,0-.83.23,0.66,0.66,0,0,0-.32.55,0.56,0.56,0,0,0,.11.34,0.91,0.91,0,0,0,.3.25,2,2,0,0,0,.38.16l0.64,0.17a10,10,0,0,1,1,.29A3.09,3.09,0,0,1,5,36.5a1.58,1.58,0,0,1,.49.57,1.82,1.82,0,0,1,.18.84" transform="translate(-0.46 0)" style="fill:#00add2"/><path d="M6.88,39.19V34a0.87,0.87,0,0,1,.18-0.61,0.61,0.61,0,0,1,.48-0.2,0.64,0.64,0,0,1,.49.2,0.86,0.86,0,0,1,.19.61v5.19A0.87,0.87,0,0,1,8,39.8a0.63,0.63,0,0,1-.49.2,0.61,0.61,0,0,1-.47-0.2,0.88,0.88,0,0,1-.19-0.61" transform="translate(-0.46 0)" style="fill:#00add2"/><path d="M13.92,39.14l-0.31-.83H10.93l-0.31.84a3,3,0,0,1-.31.67,0.5,0.5,0,0,1-.43.17,0.62,0.62,0,0,1-.44-0.18,0.56,0.56,0,0,1-.19-0.42,0.93,0.93,0,0,1,0-.28c0-.1.08-0.23,0.15-0.4l1.68-4.28L11.28,34a2.27,2.27,0,0,1,.22-0.43,0.87,0.87,0,0,1,.3-0.28,1.07,1.07,0,0,1,.93,0,0.89,0.89,0,0,1,.3.27,2,2,0,0,1,.19.36l0.2,0.51,1.72,4.25a2.14,2.14,0,0,1,.2.7,0.58,0.58,0,0,1-.19.42,0.63,0.63,0,0,1-.46.19,0.59,0.59,0,0,1-.27-0.06,0.55,0.55,0,0,1-.19-0.15,1.38,1.38,0,0,1-.16-0.3l-0.15-.35m-2.64-1.83h2l-1-2.72Z" transform="translate(-0.46 0)" style="fill:#00add2"/><path d="M21.32,37.91A1.93,1.93,0,0,1,21,39a2,2,0,0,1-.9.75,3.37,3.37,0,0,1-1.41.27,3.16,3.16,0,0,1-1.61-.37,2.14,2.14,0,0,1-.73-0.71,1.61,1.61,0,0,1-.28-0.86,0.58,0.58,0,0,1,.6-0.59,0.51,0.51,0,0,1,.36.13,1.06,1.06,0,0,1,.25.4,2.7,2.7,0,0,0,.27.53,1.11,1.11,0,0,0,.41.35,1.52,1.52,0,0,0,.7.14,1.57,1.57,0,0,0,1-.28A0.83,0.83,0,0,0,20,38.06a0.73,0.73,0,0,0-.2-0.53,1.29,1.29,0,0,0-.52-0.31c-0.21-.07-0.49-0.15-0.85-0.23a6.19,6.19,0,0,1-1.19-.39A1.93,1.93,0,0,1,16.5,36a1.58,1.58,0,0,1-.28-1,1.64,1.64,0,0,1,.3-1,1.87,1.87,0,0,1,.86-0.65,3.51,3.51,0,0,1,1.32-.23,3.26,3.26,0,0,1,1,.15,2.21,2.21,0,0,1,.73.4,1.67,1.67,0,0,1,.43.52,1.21,1.21,0,0,1,.13.53,0.63,0.63,0,0,1-.17.43,0.54,0.54,0,0,1-.42.19,0.48,0.48,0,0,1-.35-0.11,1.54,1.54,0,0,1-.26-0.37,1.7,1.7,0,0,0-.43-0.58,1.26,1.26,0,0,0-.81-0.21,1.4,1.4,0,0,0-.83.23,0.66,0.66,0,0,0-.32.55,0.55,0.55,0,0,0,.11.34,0.91,0.91,0,0,0,.3.25,2,2,0,0,0,.38.16l0.64,0.17a10,10,0,0,1,1,.29,3.08,3.08,0,0,1,.77.38,1.57,1.57,0,0,1,.49.57,1.83,1.83,0,0,1,.18.84" transform="translate(-0.46 0)" style="fill:#00add2"/><path d="M26.67,39.14l-0.31-.83H23.68l-0.31.84a3,3,0,0,1-.31.67,0.5,0.5,0,0,1-.43.17,0.62,0.62,0,0,1-.44-0.18A0.56,0.56,0,0,1,22,39.4a1,1,0,0,1,0-.28c0-.1.08-0.23,0.15-0.4l1.68-4.28L24,34a2.23,2.23,0,0,1,.22-0.43,0.87,0.87,0,0,1,.3-0.28A0.92,0.92,0,0,1,25,33.19a0.94,0.94,0,0,1,.46.11,0.89,0.89,0,0,1,.3.27,1.92,1.92,0,0,1,.19.36l0.2,0.51,1.72,4.25a2.14,2.14,0,0,1,.2.7,0.58,0.58,0,0,1-.19.42,0.63,0.63,0,0,1-.46.19,0.59,0.59,0,0,1-.27-0.06A0.56,0.56,0,0,1,27,39.79a1.41,1.41,0,0,1-.16-0.3l-0.15-.35M24,37.31h2L25,34.6Z" transform="translate(-0.46 0)" style="fill:#00add2"/><path d="M30.86,37.07H30.39v2.12a0.88,0.88,0,0,1-.18.62,0.63,0.63,0,0,1-.48.2,0.61,0.61,0,0,1-.49-0.21,0.92,0.92,0,0,1-.17-0.61V34.12a0.7,0.7,0,0,1,.82-0.82H32a6.6,6.6,0,0,1,.77,0,1.91,1.91,0,0,1,.57.15,1.66,1.66,0,0,1,.55.37,1.63,1.63,0,0,1,.36.56,1.89,1.89,0,0,1,.12.68A1.65,1.65,0,0,1,34,36.29a2.39,2.39,0,0,1-1.26.62,2.43,2.43,0,0,1,.68.56,5.66,5.66,0,0,1,.58.78,5.86,5.86,0,0,1,.4.75,1.47,1.47,0,0,1,.14.46,0.47,0.47,0,0,1-.08.26,0.58,0.58,0,0,1-.23.2,0.71,0.71,0,0,1-.33.07,0.65,0.65,0,0,1-.38-0.11,1,1,0,0,1-.26-0.27L33,39.15l-0.53-.89a4.9,4.9,0,0,0-.51-0.75,1.27,1.27,0,0,0-.46-0.35,1.58,1.58,0,0,0-.59-0.09m0.76-2.77H30.39v1.81h1.19A3.34,3.34,0,0,0,32.4,36a0.94,0.94,0,0,0,.5-0.28,0.81,0.81,0,0,0,.17-0.55,0.85,0.85,0,0,0-.14-0.48,0.84,0.84,0,0,0-.39-0.31,2.78,2.78,0,0,0-.92-0.1" transform="translate(-0.46 0)" style="fill:#00add2"/></svg>