<svg xmlns="http://www.w3.org/2000/svg" viewBox="0 0 745.87 485.22"><defs><style>.a{isolation:isolate;}.b{opacity:0.25;mix-blend-mode:multiply;}.c{fill:#009245;}.d,.f,.w,.x{fill:#fff;}.d,.g,.h,.i,.j,.k,.l,.m,.p,.q{stroke:#000;}.d,.e,.g,.h,.i,.j,.k,.l,.m,.n,.o,.p,.q,.r,.s,.t,.u,.v{stroke-miterlimit:10;}.d,.g,.n{stroke-width:2px;}.e,.g,.h,.i,.j,.k,.m,.n,.o,.p,.q,.r,.s,.t,.u,.v{fill:none;}.e,.n,.o,.r,.s,.t,.u,.v{stroke:#fff;}.e,.k{stroke-width:5px;}.i{stroke-width:0.5px;}.j,.o,.p,.q{stroke-width:4px;}.l,.m{stroke-width:3px;}.p,.q,.s,.t,.u,.v{stroke-linecap:round;}.q{stroke-dasharray:0 7.5;}.r{stroke-width:0.62px;}.s,.t{stroke-width:1.23px;}.t{stroke-dasharray:0 2.31;}.u,.v{stroke-width:2.63px;}.v{stroke-dasharray:0 4.93;}.w{font-size:6.57px;}.w,.x{font-family:Roboto;}.x{font-size:8px;}</style></defs><title>delete-white</title><g class="a"><g class="b"><rect x="649.41" y="371.09" width="89.91" height="16.78" rx="5.93" ry="5.93"/></g><rect class="c" x="648.41" y="369.09" width="89.91" height="16.78" rx="5.93" ry="5.93"/><polygon class="d" points="363.11 133.22 363.11 173.22 393.11 173.22 393.11 140.37 386.49 133.22 363.11 133.22"/><polyline class="e" points="21.73 37.28 32.17 47.72 48.66 31.23"/><line class="e" x1="91.71" y1="46.39" x2="108.2" y2="29.91"/><line class="e" x1="108.2" y1="46.39" x2="91.71" y2="29.91"/><line class="e" x1="150.36" y1="51.72" x2="150.36" y2="29.72"/><line class="e" x1="160.86" y1="40.22" x2="138.86" y2="40.22"/><line class="e" x1="206.36" y1="33.72" x2="206.36" y2="51.72"/><polyline class="e" points="214.65 41.86 206.17 33.38 197.65 41.9"/><polygon class="f" points="268.87 29.72 281.86 37.22 268.87 44.72 268.87 29.72"/><polygon class="f" points="317.86 30.72 310.36 43.71 302.86 30.72 317.86 30.72"/><circle cx="22.5" cy="93.19" r="2.5"/><circle cx="12.5" cy="93.19" r="2.5"/><circle cx="2.5" cy="93.19" r="2.5"/><line class="e" x1="19.63" y1="76.82" x2="49.63" y2="76.82"/><path class="f" d="M80.13,39a8.9,8.9,0,1,1-8.9,8.9,8.91,8.91,0,0,1,8.9-8.9m0-2A10.9,10.9,0,1,0,91,47.89,10.9,10.9,0,0,0,80.13,37h0Z" transform="translate(18.84 28.93)"/><polyline class="g" points="393.11 140.22 386.57 140.22 386.57 133.22"/><rect class="g" x="400.2" y="1" width="5.87" height="28.74"/><rect class="g" x="382.22" y="-1.27" width="4.15" height="4.15" transform="translate(130.83 300.91) rotate(-45)"/><polygon class="g" points="419.42 11.17 419.42 40.06 422.42 43 425.42 40.06 425.42 11.17 419.42 11.17"/><rect class="g" x="468.72" y="4.64" width="5.87" height="28.74"/><line class="h" x1="419.42" y1="40.06" x2="425.42" y2="40.06"/><line class="h" x1="422.42" y1="11.17" x2="422.42" y2="40.06"/><polygon class="g" points="445.21 10.76 445.21 39.65 448.21 42.58 451.21 39.65 451.21 10.76 445.21 10.76"/><line class="h" x1="445.21" y1="39.65" x2="451.21" y2="39.65"/><line class="i" x1="448.21" y1="10.76" x2="448.21" y2="39.65"/><polygon class="d" points="399.64 140.22 379.21 160.65 379.26 164.84 383.45 164.89 403.88 144.46 399.64 140.22"/><line class="i" x1="380.21" y1="159.65" x2="384.45" y2="163.89"/><polygon class="d" points="437.87 350.85 437.87 390.85 467.87 390.85 467.87 358.01 461.24 350.85 437.87 350.85"/><polyline class="g" points="467.87 357.85 461.32 357.85 461.32 350.85"/><polygon class="d" points="414.43 133.22 414.43 173.22 444.43 173.22 444.43 140.37 437.81 133.22 414.43 133.22"/><polyline class="g" points="444.43 140.22 437.89 140.22 437.89 133.22"/><line class="g" x1="419.42" y1="140.22" x2="430.58" y2="140.22"/><line class="g" x1="419.42" y1="148.27" x2="437.89" y2="148.27"/><line class="g" x1="419.42" y1="156.22" x2="437.89" y2="156.22"/><line class="g" x1="419.42" y1="164.17" x2="437.89" y2="164.17"/><polygon class="d" points="495.43 246.09 495.43 286.09 525.43 286.09 525.43 253.25 518.8 246.09 495.43 246.09"/><polyline class="g" points="525.43 253.09 518.89 253.09 518.89 246.09"/><polygon class="d" points="459.43 133.22 459.43 173.22 489.43 173.22 489.43 140.37 482.81 133.22 459.43 133.22"/><polyline class="g" points="489.43 140.22 482.89 140.22 482.89 133.22"/><polyline class="j" points="465.23 153.72 472.36 160.86 483.64 149.58"/><polygon class="d" points="551.43 245.22 551.43 285.22 581.43 285.22 581.43 252.37 574.8 245.22 551.43 245.22"/><polyline class="g" points="581.43 252.22 574.89 252.22 574.89 245.22"/><polyline class="k" points="557.73 267.22 563.36 272.86 574.64 261.58"/><polyline class="k" points="314.57 308.22 320.21 313.86 331.49 302.58"/><rect class="l" x="303.93" y="213.45" width="16.75" height="9.02"/><path class="m" d="M285.09,184.52v-4.62c0-4.19,3.75-7,8.38-7s8.38,2.83,8.38,7v4.62" transform="translate(18.84 28.93)"/><rect class="l" x="310.93" y="179.93" width="16.75" height="10.75"/><path class="m" d="M292.09,151v-5.5a8.38,8.38,0,0,1,16.75,0V151" transform="translate(18.84 28.93)"/><path class="g" d="M235.59,164.23a9.55,9.55,0,0,0-8.27,4.78,9.55,9.55,0,0,0,16.55,0A9.55,9.55,0,0,0,235.59,164.23Z" transform="translate(18.84 28.93)"/><circle cx="254.43" cy="197.94" r="4.78"/><path class="j" d="M291,212.84a8.09,8.09,0,1,1-11.12-5" transform="translate(18.84 28.93)"/><polygon points="297.46 242.37 305.85 236.98 296.99 232.41 297.46 242.37"/><polygon class="d" points="603.3 246.09 603.3 286.09 633.3 286.09 633.3 253.25 626.68 246.09 603.3 246.09"/><polyline class="g" points="633.3 253.09 626.76 253.09 626.76 246.09"/><path class="j" d="M607.05,235.27a8.75,8.75,0,1,1-10.33-4" transform="translate(18.84 28.93)"/><polygon points="613.91 265.69 622.71 261 614.24 255.73 613.91 265.69"/><rect x="432.91" y="332.8" width="4.94" height="20.96" transform="translate(389.1 -178.39) rotate(45)"/><polygon points="447.15 382.79 442.36 384.07 443.64 379.29 447.15 382.79"/><polygon class="n" points="442.5 442.22 442.5 482.22 472.5 482.22 472.5 449.37 465.87 442.22 442.5 442.22"/><polyline class="n" points="472.5 449.22 465.95 449.22 465.95 442.22"/><rect class="f" x="437.54" y="424.17" width="4.94" height="20.96" transform="translate(455.06 -154.9) rotate(45)"/><polygon class="f" points="451.78 474.16 446.99 475.44 448.27 470.65 451.78 474.16"/><polygon class="d" points="437.89 301.47 437.89 341.47 467.89 341.47 467.89 308.62 461.26 301.47 437.89 301.47"/><polyline class="g" points="467.89 308.47 461.34 308.47 461.34 301.47"/><circle class="j" cx="510.43" cy="268.55" r="7.16"/><polygon class="d" points="660.37 247.22 660.37 287.22 690.37 287.22 690.37 254.37 683.74 247.22 660.37 247.22"/><polyline class="g" points="690.37 254.22 683.82 254.22 683.82 247.22"/><line class="k" x1="675.37" y1="259.67" x2="675.37" y2="278.09"/><line class="k" x1="666.15" y1="268.88" x2="684.58" y2="268.88"/><polygon class="d" points="714.87 247.22 714.87 287.22 744.87 287.22 744.87 254.37 738.24 247.22 714.87 247.22"/><polyline class="g" points="744.87 254.22 738.32 254.22 738.32 247.22"/><line class="k" x1="723.35" y1="262.37" x2="736.38" y2="275.4"/><line class="k" x1="723.35" y1="275.4" x2="736.38" y2="262.37"/><polygon class="n" points="495.43 443.09 495.43 483.09 525.43 483.09 525.43 450.25 518.8 443.09 495.43 443.09"/><polyline class="n" points="525.43 450.09 518.89 450.09 518.89 443.09"/><polygon class="n" points="551.43 442.22 551.43 482.22 581.43 482.22 581.43 449.37 574.8 442.22 551.43 442.22"/><polyline class="n" points="581.43 449.22 574.89 449.22 574.89 442.22"/><polyline class="e" points="557.73 464.22 563.36 469.86 574.64 458.58"/><polygon class="n" points="603.3 443.09 603.3 483.09 633.3 483.09 633.3 450.25 626.68 443.09 603.3 443.09"/><polyline class="n" points="633.3 450.09 626.76 450.09 626.76 443.09"/><path class="o" d="M607.05,432.27a8.75,8.75,0,1,1-10.33-4" transform="translate(18.84 28.93)"/><polygon class="f" points="613.91 462.69 622.71 458 614.24 452.73 613.91 462.69"/><circle class="o" cx="510.43" cy="465.55" r="7.16"/><polygon class="n" points="660.37 444.22 660.37 484.22 690.37 484.22 690.37 451.37 683.74 444.22 660.37 444.22"/><polyline class="n" points="690.37 451.22 683.82 451.22 683.82 444.22"/><line class="e" x1="675.37" y1="456.67" x2="675.37" y2="475.09"/><line class="e" x1="666.15" y1="465.88" x2="684.58" y2="465.88"/><polygon class="n" points="714.87 444.22 714.87 484.22 744.87 484.22 744.87 451.37 738.24 444.22 714.87 444.22"/><polyline class="n" points="744.87 451.22 738.32 451.22 738.32 444.22"/><line class="e" x1="723.35" y1="459.37" x2="736.38" y2="472.4"/><line class="e" x1="723.35" y1="472.4" x2="736.38" y2="459.37"/><line class="j" x1="444.4" y1="317.59" x2="461.34" y2="317.59"/><line class="j" x1="444.4" y1="327.34" x2="455.89" y2="327.34"/><polygon class="d" points="437.89 247.22 437.89 287.22 467.89 287.22 467.89 254.37 461.26 247.22 437.89 247.22"/><polyline class="g" points="467.89 254.22 461.34 254.22 461.34 247.22"/><line class="p" x1="445.39" y1="276.22" x2="445.39" y2="276.22"/><line class="q" x1="452.89" y1="276.22" x2="456.64" y2="276.22"/><line class="p" x1="460.39" y1="276.22" x2="460.39" y2="276.22"/><polygon class="r" points="654.9 371.31 654.9 383.65 664.15 383.65 664.15 373.52 662.11 371.31 654.9 371.31"/><polyline class="r" points="664.15 373.47 662.13 373.47 662.13 371.31"/><line class="s" x1="657.21" y1="380.26" x2="657.21" y2="380.26"/><line class="t" x1="659.52" y1="380.26" x2="660.68" y2="380.26"/><line class="s" x1="661.84" y1="380.26" x2="661.84" y2="380.26"/><rect class="h" x="254.43" y="291.72" width="30" height="30"/><rect class="h" x="308.03" y="293.22" width="30" height="30"/><polyline class="k" points="314.57 345.22 320.21 350.86 331.49 339.58"/><circle class="j" cx="269.43" cy="306.72" r="7.16"/><circle class="h" cx="322.73" cy="344.72" r="15"/><rect class="c" x="557.73" y="142.18" width="85.88" height="12.17" rx="3.94" ry="3.94"/><line class="u" x1="564.01" y1="150.41" x2="564.01" y2="150.41"/><line class="v" x1="568.94" y1="150.41" x2="571.41" y2="150.41"/><line class="u" x1="573.87" y1="150.41" x2="573.87" y2="150.41"/><text class="w" transform="translate(587.48 150.41)">guardar borrador</text><text class="x" transform="translate(670.93 380.07)">guardar borrador</text><text class="x" transform="translate(434.75 233.72)">borrador</text><text class="x" transform="translate(492.74 233.72)">finalizado</text><text class="x" transform="translate(551.21 233.72)">v<tspan x="3.99" y="0">alidado</tspan></text><text class="x" transform="translate(600.54 233.72)">actualizar</text><text class="x" transform="translate(664.48 233.72)">nu<tspan x="9.06" y="0">e</tspan><tspan x="13.24" y="0">v</tspan><tspan x="17.23" y="0">o</tspan></text><text class="x" transform="translate(719.01 233.72)">borrar</text></g></svg>